<?xml version="1.0" encoding="UTF-8"?>
<svg version="1.1" xmlns="http://www.w3.org/2000/svg" width="24" height="24">
<path d="M0 0 C3.12578143 1.6720747 5.39281175 3.7856235 7 7 C7.51512617 11.09157355 7.94367269 15.23589546 5.953125 18.95703125 C3.55501226 21.85592636 1.60351712 23.79811835 -2.171875 24.2734375 C-9.98876369 24.58137554 -9.98876369 24.58137554 -13.5625 21.625 C-17.3057723 17.59378368 -17.39037018 14.90519941 -17.359375 9.55078125 C-16.78039966 5.44131496 -15.00085071 3.78650423 -12 1 C-8.27533151 -0.86233425 -4.05504687 -0.57130829 0 0 Z " fill="#EEEDED" transform="translate(17,0)"/>
<path d="M0 0 C6.06538895 3.63923337 6.06538895 3.63923337 8 7 C8.80407057 11.0605564 8.93064111 15.22072831 6.98046875 18.94921875 C4.85618473 21.59976044 3.23500981 22.9216634 0 24 C0 16.08 0 8.16 0 0 Z " fill="#EC1C24" transform="translate(16,0)"/>
<path d="M0 0 C0 7.92 0 15.84 0 24 C-6.06538895 20.36076663 -6.06538895 20.36076663 -8 17 C-8.80503292 12.93458375 -8.95254041 8.76043579 -6.9453125 5.05078125 C-2.81174334 0 -2.81174334 0 0 0 Z " fill="#0E8A43" transform="translate(8,0)"/>
</svg>
