<?xml version="1.0" encoding="UTF-8"?>
<svg version="1.1" xmlns="http://www.w3.org/2000/svg" width="24" height="24">
<path d="M0 0 C3.12578143 1.6720747 5.39281175 3.7856235 7 7 C7.51512617 11.09157355 7.94367269 15.23589546 5.953125 18.95703125 C3.55501226 21.85592636 1.60351712 23.79811835 -2.171875 24.2734375 C-9.98876369 24.58137554 -9.98876369 24.58137554 -13.5625 21.625 C-17.3057723 17.59378368 -17.39037018 14.90519941 -17.359375 9.55078125 C-16.78039966 5.44131496 -15.00085071 3.78650423 -12 1 C-8.27533151 -0.86233425 -4.05504687 -0.57130829 0 0 Z " fill="#DA1C3F" transform="translate(17,0)"/>
<path d="M0 0 C7.92 0 15.84 0 24 0 C21.38709677 6.53225806 21.38709677 6.53225806 17 9 C12.84364916 9.74939214 8.8923652 9.96138232 5.0546875 8.01171875 C1.85161617 5.51270416 0.99699698 3.98798794 0 0 Z " fill="#EDD6DA" transform="translate(0,15)"/>
<path d="M0 0 C0 3.96 0 7.92 0 12 C-3.96 12 -7.92 12 -12 12 C-11.76404051 5.98303301 -11.76404051 5.98303301 -9.7734375 3.421875 C-6.21757191 0.24894878 -4.92973349 0 0 0 Z " fill="#1962BA" transform="translate(12,0)"/>
<path d="M0 0 C7.92 0 15.84 0 24 0 C24 0.99 24 1.98 24 3 C16.08 3 8.16 3 0 3 C0 2.01 0 1.02 0 0 Z " fill="#F0F0F0" transform="translate(0,12)"/>
<path d="M0 0 C7.92 0 15.84 0 24 0 C23.67 0.99 23.34 1.98 23 3 C15.74 3 8.48 3 1 3 C0.67 2.01 0.34 1.02 0 0 Z " fill="#D91136" transform="translate(0,15)"/>
<path d="M0 0 C4.62 0 9.24 0 14 0 C14 0.66 14 1.32 14 2 C11.51245214 3.24377393 9.77344699 3.13306235 7 3.125 C6.113125 3.12757812 5.22625 3.13015625 4.3125 3.1328125 C2 3 2 3 0 2 C0 1.34 0 0.68 0 0 Z " fill="#DE3C59" transform="translate(5,21)"/>
<path d="M0 0 C3.96 0 7.92 0 12 0 C12 0.99 12 1.98 12 3 C8.04 3 4.08 3 0 3 C0 2.01 0 1.02 0 0 Z " fill="#D80228" transform="translate(12,9)"/>
<path d="M0 0 C0.66 1.32 1.32 2.64 2 4 C-1.96 4 -5.92 4 -10 4 C-10 3.01 -10 2.02 -10 1 C-6.7 0.67 -3.4 0.34 0 0 Z " fill="#EEE3E5" transform="translate(22,5)"/>
<path d="M0 0 C0 1.98 0 3.96 0 6 C-1.32 5.67 -2.64 5.34 -4 5 C-4 6.65 -4 8.3 -4 10 C-4.66 10 -5.32 10 -6 10 C-5.67112602 6.38238619 -5.37334709 4.44334967 -3 1.625 C-1 -0 -1 -0 0 0 Z " fill="#6B98CE" transform="translate(6,1)"/>
<path d="M0 0 C2.3431213 0.25561323 4.67843403 0.59270772 7 1 C7.33 1.66 7.66 2.32 8 3 C5.36 3 2.72 3 0 3 C0 2.01 0 1.02 0 0 Z " fill="#EBC7CE" transform="translate(12,0)"/>
<path d="M0 0 C1.32 0 2.64 0 4 0 C3.67 2.31 3.34 4.62 3 7 C2.34 7 1.68 7 1 7 C1.020625 6.21625 1.04125 5.4325 1.0625 4.625 C1.18684063 2.01885039 1.18684063 2.01885039 0 0 Z " fill="#6493CC" transform="translate(7,0)"/>
</svg>
